# xmcd CD database file
#
# Track frame offsets:
#	150
#	11974
#	24839
#	37136
#	49509
#	64421
#	77317
#	89091
#	100453
#	115828
#	125624
#	139607
#	155447
#	166543
#	181572
#	190641
#	203284
#	214840
#	225489
#	238351
#	255828
#
# Disc length: 3548 seconds
#
# Revision: 0
# Processed by: cddbd v1.5.2PL0 Copyright (c) Steve Scherf et al.
# Submitted via: CDex 1.70beta2
#
DISCID=090dda15
DTITLE=Pride,Charley - She's Just An Old Love Turned Memory
DYEAR=2016
DGENRE=Country
TTITLE0=She's Just An Old Love Turned Memory
TTITLE1=Rhinestone Cowboy
TTITLE2=The Hunger
TTITLE3=A Whole Lotta Things To Sing About
TTITLE4=I Feel The Country Callin' Me
TTITLE5=I'll Be Leaving Alone
TTITLE6=We Need Lovin'We Need Lovin'
TTITLE7=Country Music
TTITLE8=The Rose Is For Today
TTITLE9=Get Up Off Your Good Intentions
TTITLE10=Someone Loves You Honey
TTITLE11=Georgia Keeps Pulling On My Ring
TTITLE12=I Live You
TTITLE13=Play, Guitar, Play
TTITLE14=Another I Love You Kind Of Day
TTITLE15=More To Me
TTITLE16=Days Of Our Lives
TTITLE17=Daydreams About Night Things
TTITLE18=Heaven Watches Over Fools Like Me
TTITLE19=The Days Of Sand And Shovels
TTITLE20=I'm Never Leaving You
EXTD=YEAR: 2016
EXTT0=
EXTT1=
EXTT2=
EXTT3=
EXTT4=
EXTT5=
EXTT6=
EXTT7=
EXTT8=
EXTT9=
EXTT10=
EXTT11=
EXTT12=
EXTT13=
EXTT14=
EXTT15=
EXTT16=
EXTT17=
EXTT18=
EXTT19=
EXTT20=
PLAYORDER=
